<svg xmlns="http://www.w3.org/2000/svg" width="54.031" height="82.597" viewBox="0 0 54.031 82.597">
  <g id="Grupo_23135" data-name="Grupo 23135" transform="translate(-123.095 -783.761)">
    <g id="Elipse_760" data-name="Elipse 760" transform="translate(124.095 784.761)" fill="#f3d532" stroke="#cb9022" stroke-linejoin="round" stroke-width="1">
      <circle cx="26.016" cy="26.016" r="26.016" stroke="none"/>
      <circle cx="26.016" cy="26.016" r="26.516" fill="none"/>
    </g>
    <path id="Trazado_30106" data-name="Trazado 30106" d="M166.8,790.828a26.01,26.01,0,0,1-34.759,38.66,26.011,26.011,0,1,0,34.759-38.66Z" fill="#d7a527"/>
    <g id="Trazado_30107" data-name="Trazado 30107" fill="#888a8b">
      <path d="M 150.2220001220703 865.8579711914062 C 148.1054840087891 865.8579711914062 146.1099548339844 864.9271850585938 144.8839569091797 863.3681030273438 L 144.2478179931641 862.5591430664062 L 145.2769470214844 862.5590209960938 L 155.1669616699219 862.5579833984375 L 156.1958770751953 862.557861328125 L 155.5601654052734 863.3668823242188 C 154.3345031738281 864.9267578125 152.3389129638672 865.8579711914062 150.2220001220703 865.8579711914062 Z" stroke="none"/>
      <path d="M 155.1670074462891 863.0579833984375 L 145.2769927978516 863.0590209960938 C 146.3699951171875 864.448974609375 148.177001953125 865.3579711914062 150.2220001220703 865.3579711914062 C 152.2669982910156 865.3579711914062 154.0740051269531 864.448974609375 155.1670074462891 863.0579833984375 M 157.2247467041016 862.0578002929688 L 155.9532928466797 863.6758422851562 C 154.6336212158203 865.3552856445312 152.4910736083984 866.3579711914062 150.2220001220703 866.3579711914062 C 147.9533843994141 866.3579711914062 145.8109130859375 865.3557739257812 144.4909210205078 863.6771240234375 L 143.2186584472656 862.0592041015625 L 157.2247467041016 862.0578002929688 Z" stroke="none" fill="#3b3b3b"/>
    </g>
    <path id="Trazado_30108" data-name="Trazado 30108" d="M145.277,863.059a6.467,6.467,0,0,0,9.89,0Z" fill="#888a8b" style="mix-blend-mode: multiply;isolation: isolate"/>
    <g id="Grupo_23133" data-name="Grupo 23133">
      <g id="Trazado_30109" data-name="Trazado 30109" fill="#888a8b">
        <path d="M 157.031005859375 861.0029907226562 L 143.1909942626953 861.0029907226562 C 141.7738952636719 861.0029907226562 140.6210021972656 859.8496704101562 140.6210021972656 858.4320068359375 C 140.6210021972656 857.014892578125 141.7738952636719 855.8619995117188 143.1909942626953 855.8619995117188 L 157.031005859375 855.8619995117188 C 158.4481048583984 855.8619995117188 159.6009979248047 857.014892578125 159.6009979248047 858.4320068359375 C 159.6009979248047 859.8496704101562 158.4481048583984 861.0029907226562 157.031005859375 861.0029907226562 Z" stroke="none"/>
        <path d="M 157.031005859375 860.5029907226562 C 158.1739959716797 860.5029907226562 159.1009979248047 859.5759887695312 159.1009979248047 858.4320068359375 C 159.1009979248047 857.2890014648438 158.1739959716797 856.3619995117188 157.031005859375 856.3619995117188 L 143.1909942626953 856.3619995117188 C 142.0480041503906 856.3619995117188 141.1210021972656 857.2890014648438 141.1210021972656 858.4320068359375 C 141.1210021972656 859.5759887695312 142.0480041503906 860.5029907226562 143.1909942626953 860.5029907226562 L 157.031005859375 860.5029907226562 M 157.031005859375 861.5029907226562 L 143.1909942626953 861.5029907226562 C 141.4981994628906 861.5029907226562 140.1210021972656 860.1253662109375 140.1210021972656 858.4320068359375 C 140.1210021972656 856.7391967773438 141.4981994628906 855.3619995117188 143.1909942626953 855.3619995117188 L 157.031005859375 855.3619995117188 C 158.7238006591797 855.3619995117188 160.1009979248047 856.7391967773438 160.1009979248047 858.4320068359375 C 160.1009979248047 860.1253662109375 158.7238006591797 861.5029907226562 157.031005859375 861.5029907226562 Z" stroke="none" fill="#3b3b3b"/>
      </g>
    </g>
    <g id="Grupo_23134" data-name="Grupo 23134">
      <g id="Trazado_30110" data-name="Trazado 30110" fill="#888a8b">
        <path d="M 157.031005859375 854.6909790039062 L 143.1909942626953 854.6909790039062 C 141.7738952636719 854.6909790039062 140.6210021972656 853.5380859375 140.6210021972656 852.1209716796875 C 140.6210021972656 850.7033081054688 141.7738952636719 849.5499877929688 143.1909942626953 849.5499877929688 L 157.031005859375 849.5499877929688 C 158.4481048583984 849.5499877929688 159.6009979248047 850.7033081054688 159.6009979248047 852.1209716796875 C 159.6009979248047 853.5380859375 158.4481048583984 854.6909790039062 157.031005859375 854.6909790039062 Z" stroke="none"/>
        <path d="M 157.031005859375 854.1909790039062 C 158.1739959716797 854.1909790039062 159.1009979248047 853.2639770507812 159.1009979248047 852.1209716796875 C 159.1009979248047 850.9769897460938 158.1739959716797 850.0499877929688 157.031005859375 850.0499877929688 L 143.1909942626953 850.0499877929688 C 142.0480041503906 850.0499877929688 141.1210021972656 850.9769897460938 141.1210021972656 852.1209716796875 C 141.1210021972656 853.2639770507812 142.0480041503906 854.1909790039062 143.1909942626953 854.1909790039062 L 157.031005859375 854.1909790039062 M 157.031005859375 855.1909790039062 L 143.1909942626953 855.1909790039062 C 141.4981994628906 855.1909790039062 140.1210021972656 853.8137817382812 140.1210021972656 852.1209716796875 C 140.1210021972656 850.4276123046875 141.4981994628906 849.0499877929688 143.1909942626953 849.0499877929688 L 157.031005859375 849.0499877929688 C 158.7238006591797 849.0499877929688 160.1009979248047 850.4276123046875 160.1009979248047 852.1209716796875 C 160.1009979248047 853.8137817382812 158.7238006591797 855.1909790039062 157.031005859375 855.1909790039062 Z" stroke="none" fill="#3b3b3b"/>
      </g>
    </g>
    <path id="Trazado_30111" data-name="Trazado 30111" d="M157.031,856.362H148.74a2.07,2.07,0,0,1,0,4.141h8.291a2.07,2.07,0,0,0,0-4.141Z" fill="#888a8b" style="mix-blend-mode: multiply;isolation: isolate"/>
    <path id="Trazado_30112" data-name="Trazado 30112" d="M157.031,850.05H148.74a2.07,2.07,0,0,1,0,4.141h8.291a2.07,2.07,0,0,0,0-4.141Z" fill="#888a8b" style="mix-blend-mode: multiply;isolation: isolate"/>
    <path id="Trazado_30113" data-name="Trazado 30113" d="M146.9,789.312c-6.721,1.251-12.048,4.562-15.493,10.595a24.862,24.862,0,0,0-3.06,9.544" fill="none" stroke="#fff" stroke-linecap="round" stroke-linejoin="round" stroke-width="6"/>
    <g id="Trazado_30114" data-name="Trazado 30114" fill="#888a8b" stroke-linecap="round" stroke-linejoin="round">
      <path d="M 154.779296875 848.215087890625 C 153.995849609375 848.215087890625 153.2122802734375 848.2147827148438 152.4287109375 848.2145385742188 C 151.6451110839844 848.2142333984375 150.8614959716797 848.2139892578125 150.0780029296875 848.2139892578125 C 148.806640625 848.2144775390625 147.5350799560547 848.2147827148438 146.2635040283203 848.2147827148438 C 144.9919281005859 848.2147827148438 143.7203674316406 848.2144775390625 142.4488067626953 848.2139892578125 C 140.9096221923828 848.2139892578125 140.1185913085938 847.4829711914062 139.9595489501953 845.9133911132812 C 139.7447357177734 843.7963256835938 139.4755249023438 841.735595703125 139.2405090332031 839.9990844726562 C 139.1162872314453 839.0771484375 138.6286926269531 838.2123413085938 137.7498474121094 837.3549194335938 C 136.7315979003906 836.3617553710938 135.6643218994141 835.3801879882812 134.6321868896484 834.4308471679688 C 134.1509399414062 833.98828125 133.6533050537109 833.5305786132812 133.1662139892578 833.0768432617188 C 130.8366088867188 830.9072265625 129.0383605957031 828.3677368164062 127.8214416503906 825.5289916992188 L 127.5226669311523 824.8319702148438 L 128.281005859375 824.8319702148438 L 171.9400024414062 824.8319702148438 L 172.6896820068359 824.8319702148438 L 172.401611328125 825.5241088867188 C 171.1054840087891 828.6383056640625 169.2332611083984 831.2677001953125 166.8369903564453 833.3392333984375 C 166.181640625 833.9053344726562 165.5285797119141 834.501220703125 164.8970031738281 835.0775146484375 C 164.4515075683594 835.4840698242188 163.9908599853516 835.9044189453125 163.5310668945312 836.3128051757812 C 161.7924957275391 837.8563232421875 160.922119140625 839.4557495117188 160.7918243408203 841.3463745117188 C 160.731689453125 842.2197875976562 160.6271362304688 843.098388671875 160.5260314941406 843.9481201171875 C 160.4473114013672 844.6094970703125 160.3659362792969 845.2933959960938 160.3070831298828 845.9636840820312 C 160.1770172119141 847.4537353515625 159.3640747070312 848.2105712890625 157.8908233642578 848.2130126953125 C 156.8534545898438 848.214599609375 155.8166198730469 848.215087890625 154.779296875 848.215087890625 Z" stroke="none"/>
      <path d="M 128.281005859375 825.3319702148438 C 129.4320068359375 828.0170288085938 131.1340026855469 830.5009765625 133.5070037841797 832.7109985351562 C 135.0390014648438 834.1380004882812 136.6000061035156 835.5349731445312 138.0989990234375 836.9970092773438 C 138.9199981689453 837.7979736328125 139.5769958496094 838.7520141601562 139.7359924316406 839.9320068359375 C 140.0030059814453 841.905029296875 140.2559967041016 843.8820190429688 140.4570007324219 845.8629760742188 C 140.5870056152344 847.14599609375 141.1430053710938 847.7139892578125 142.4490051269531 847.7139892578125 C 144.9920043945312 847.7149658203125 147.5350036621094 847.7149658203125 150.0780029296875 847.7139892578125 C 152.6819915771484 847.7139892578125 155.2859954833984 847.7169799804688 157.8899993896484 847.7130126953125 C 159.1179962158203 847.7109985351562 159.7039947509766 847.1229858398438 159.8090057373047 845.9199829101562 C 159.9440002441406 844.3820190429688 160.1869964599609 842.8519897460938 160.2929992675781 841.31201171875 C 160.447998046875 839.06298828125 161.5769958496094 837.3790283203125 163.1990051269531 835.9390258789062 C 164.3090057373047 834.9530029296875 165.3869934082031 833.9310302734375 166.5099945068359 832.9609985351562 C 168.9380035400391 830.8619995117188 170.7380065917969 828.219970703125 171.9400024414062 825.3319702148438 L 128.281005859375 825.3319702148438 M 128.281005859375 824.3319702148438 L 171.9400024414062 824.3319702148438 C 172.2742919921875 824.3319702148438 172.5864562988281 824.4990234375 172.7719421386719 824.777099609375 C 172.9574279785156 825.05517578125 172.9916839599609 825.4075927734375 172.8632354736328 825.7161865234375 C 171.5370025634766 828.9027099609375 169.6195068359375 831.5947265625 167.1639862060547 833.7174682617188 C 166.5136413574219 834.2792358398438 165.8631286621094 834.8728637695312 165.2340393066406 835.4468994140625 C 164.7873229980469 835.8544921875 164.3254089355469 836.2760009765625 163.8631286621094 836.6866455078125 C 162.2286987304688 838.1376953125 161.4113464355469 839.6292114257812 161.2906188964844 841.3807983398438 C 161.2296600341797 842.2666015625 161.1243438720703 843.1514892578125 161.0225067138672 844.0072631835938 C 160.9442596435547 844.6648559570312 160.8633270263672 845.3447875976562 160.80517578125 846.0074462890625 C 160.6531372070312 847.7491455078125 159.618408203125 848.710205078125 157.8916320800781 848.7130126953125 C 156.070068359375 848.7157592773438 154.2491455078125 848.715087890625 152.4275512695312 848.7145385742188 C 150.3729553222656 848.7137451171875 148.3185272216797 848.7147827148438 146.2635040283203 848.7147827148438 C 144.9918670654297 848.7147827148438 143.7202301025391 848.7144775390625 142.4485931396484 848.7139892578125 C 140.6519470214844 848.7139892578125 139.6470031738281 847.7886962890625 139.4620971679688 845.9638061523438 C 139.2480316162109 843.8541259765625 138.9794769287109 841.798583984375 138.7450256347656 840.0661010742188 C 138.6362457275391 839.2588500976562 138.196533203125 838.4892578125 137.4006805419922 837.7127685546875 C 136.3877105712891 836.7247924804688 135.3231506347656 835.7456665039062 134.2936401367188 834.798828125 C 133.8118438720703 834.355712890625 133.3136444091797 833.8975219726562 132.8254089355469 833.4427490234375 C 130.4445953369141 831.2254028320312 128.6063842773438 828.6290893554688 127.3618927001953 825.7259521484375 C 127.2294464111328 825.4169921875 127.2611083984375 825.0621337890625 127.4461517333984 824.781494140625 C 127.6311798095703 824.5008544921875 127.9448394775391 824.3319702148438 128.281005859375 824.3319702148438 Z" stroke="none" fill="#3b3b3b"/>
    </g>
    <g id="Trazado_30115" data-name="Trazado 30115" fill="#888a8b" stroke-linecap="round" stroke-linejoin="round">
      <path d="M 154.779296875 848.215087890625 C 153.995849609375 848.215087890625 153.2122802734375 848.2147827148438 152.4287109375 848.2145385742188 C 151.6451110839844 848.2142333984375 150.8614959716797 848.2139892578125 150.0780029296875 848.2139892578125 C 148.806640625 848.2144775390625 147.5350799560547 848.2147827148438 146.2635040283203 848.2147827148438 C 144.9919281005859 848.2147827148438 143.7203674316406 848.2144775390625 142.4488067626953 848.2139892578125 C 140.9096221923828 848.2139892578125 140.1185913085938 847.4829711914062 139.9595489501953 845.9133911132812 C 139.7447357177734 843.7963256835938 139.4755249023438 841.735595703125 139.2405090332031 839.9990844726562 C 139.1162872314453 839.0771484375 138.6286926269531 838.2123413085938 137.7498474121094 837.3549194335938 C 136.7315979003906 836.3617553710938 135.6643218994141 835.3801879882812 134.6321868896484 834.4308471679688 C 134.1509399414062 833.98828125 133.6533050537109 833.5305786132812 133.1662139892578 833.0768432617188 C 130.8366088867188 830.9072265625 129.0383605957031 828.3677368164062 127.8214416503906 825.5289916992188 L 127.5226669311523 824.8319702148438 L 128.281005859375 824.8319702148438 L 171.9400024414062 824.8319702148438 L 172.6896820068359 824.8319702148438 L 172.401611328125 825.5241088867188 C 171.1054840087891 828.6383056640625 169.2332611083984 831.2677001953125 166.8369903564453 833.3392333984375 C 166.181640625 833.9053344726562 165.5285797119141 834.501220703125 164.8970031738281 835.0775146484375 C 164.4515075683594 835.4840698242188 163.9908599853516 835.9044189453125 163.5310668945312 836.3128051757812 C 161.7924957275391 837.8563232421875 160.922119140625 839.4557495117188 160.7918243408203 841.3463745117188 C 160.731689453125 842.2197875976562 160.6271362304688 843.098388671875 160.5260314941406 843.9481201171875 C 160.4473114013672 844.6094970703125 160.3659362792969 845.2933959960938 160.3070831298828 845.9636840820312 C 160.1770172119141 847.4537353515625 159.3640747070312 848.2105712890625 157.8908233642578 848.2130126953125 C 156.8534545898438 848.214599609375 155.8166198730469 848.215087890625 154.779296875 848.215087890625 Z" stroke="none"/>
      <path d="M 128.281005859375 825.3319702148438 C 129.4320068359375 828.0170288085938 131.1340026855469 830.5009765625 133.5070037841797 832.7109985351562 C 135.0390014648438 834.1380004882812 136.6000061035156 835.5349731445312 138.0989990234375 836.9970092773438 C 138.9199981689453 837.7979736328125 139.5769958496094 838.7520141601562 139.7359924316406 839.9320068359375 C 140.0030059814453 841.905029296875 140.2559967041016 843.8820190429688 140.4570007324219 845.8629760742188 C 140.5870056152344 847.14599609375 141.1430053710938 847.7139892578125 142.4490051269531 847.7139892578125 C 144.9920043945312 847.7149658203125 147.5350036621094 847.7149658203125 150.0780029296875 847.7139892578125 C 152.6819915771484 847.7139892578125 155.2859954833984 847.7169799804688 157.8899993896484 847.7130126953125 C 159.1179962158203 847.7109985351562 159.7039947509766 847.1229858398438 159.8090057373047 845.9199829101562 C 159.9440002441406 844.3820190429688 160.1869964599609 842.8519897460938 160.2929992675781 841.31201171875 C 160.447998046875 839.06298828125 161.5769958496094 837.3790283203125 163.1990051269531 835.9390258789062 C 164.3090057373047 834.9530029296875 165.3869934082031 833.9310302734375 166.5099945068359 832.9609985351562 C 168.9380035400391 830.8619995117188 170.7380065917969 828.219970703125 171.9400024414062 825.3319702148438 L 128.281005859375 825.3319702148438 M 128.281005859375 824.3319702148438 L 171.9400024414062 824.3319702148438 C 172.2742919921875 824.3319702148438 172.5864562988281 824.4990234375 172.7719421386719 824.777099609375 C 172.9574279785156 825.05517578125 172.9916839599609 825.4075927734375 172.8632354736328 825.7161865234375 C 171.5370025634766 828.9027099609375 169.6195068359375 831.5947265625 167.1639862060547 833.7174682617188 C 166.5136413574219 834.2792358398438 165.8631286621094 834.8728637695312 165.2340393066406 835.4468994140625 C 164.7873229980469 835.8544921875 164.3254089355469 836.2760009765625 163.8631286621094 836.6866455078125 C 162.2286987304688 838.1376953125 161.4113464355469 839.6292114257812 161.2906188964844 841.3807983398438 C 161.2296600341797 842.2666015625 161.1243438720703 843.1514892578125 161.0225067138672 844.0072631835938 C 160.9442596435547 844.6648559570312 160.8633270263672 845.3447875976562 160.80517578125 846.0074462890625 C 160.6531372070312 847.7491455078125 159.618408203125 848.710205078125 157.8916320800781 848.7130126953125 C 156.070068359375 848.7157592773438 154.2491455078125 848.715087890625 152.4275512695312 848.7145385742188 C 150.3729553222656 848.7137451171875 148.3185272216797 848.7147827148438 146.2635040283203 848.7147827148438 C 144.9918670654297 848.7147827148438 143.7202301025391 848.7144775390625 142.4485931396484 848.7139892578125 C 140.6519470214844 848.7139892578125 139.6470031738281 847.7886962890625 139.4620971679688 845.9638061523438 C 139.2480316162109 843.8541259765625 138.9794769287109 841.798583984375 138.7450256347656 840.0661010742188 C 138.6362457275391 839.2588500976562 138.196533203125 838.4892578125 137.4006805419922 837.7127685546875 C 136.3877105712891 836.7247924804688 135.3231506347656 835.7456665039062 134.2936401367188 834.798828125 C 133.8118438720703 834.355712890625 133.3136444091797 833.8975219726562 132.8254089355469 833.4427490234375 C 130.4445953369141 831.2254028320312 128.6063842773438 828.6290893554688 127.3618927001953 825.7259521484375 C 127.2294464111328 825.4169921875 127.2611083984375 825.0621337890625 127.4461517333984 824.781494140625 C 127.6311798095703 824.5008544921875 127.9448394775391 824.3319702148438 128.281005859375 824.3319702148438 Z" stroke="none" fill="#3b3b3b"/>
    </g>
    <path id="Trazado_30116" data-name="Trazado 30116" d="M171.94,825.332h-2.569a30.883,30.883,0,0,1-29.292,10.244,42.522,42.522,0,0,0,6.965,2.505c3.15.813,3.348,1.874,3.348,4.244,0,1.064-.068,5.389-.068,5.389,1.774,0,5.792,0,7.566,0a1.706,1.706,0,0,0,1.919-1.792c.135-1.539.378-3.069.484-4.609a7.739,7.739,0,0,1,2.906-5.373c1.11-.986,2.188-2.008,3.311-2.978A20.311,20.311,0,0,0,171.94,825.332Z" fill="#888a8b" style="mix-blend-mode: multiply;isolation: isolate"/>
    <path id="Trazado_30117" data-name="Trazado 30117" d="M141.82,833.255a10.846,10.846,0,0,1-6.67-3.956" fill="none" stroke="#fff" stroke-linecap="round" stroke-linejoin="round" stroke-width="4"/>
    <line id="Línea_466" data-name="Línea 466" x2="2.296" transform="translate(142.981 851.3)" fill="none" stroke="#fff" stroke-linecap="round" stroke-linejoin="round" stroke-width="4"/>
    <line id="Línea_467" data-name="Línea 467" x2="2.296" transform="translate(142.981 857.732)" fill="none" stroke="#fff" stroke-linecap="round" stroke-linejoin="round" stroke-width="4"/>
  </g>
</svg>
