<svg xmlns="http://www.w3.org/2000/svg" width="77.671" height="80.597" viewBox="0 0 77.671 80.597">
  <g id="Grupo_27051" data-name="Grupo 27051" transform="translate(-4882 -1736.884)">
    <path id="Trazado_33905" data-name="Trazado 33905" d="M303.325,672.227l.214-6.552s12,5.038,19.432-.269v6.688l-5.8,3.459-4.112-1.728-4.1,1.092Z" transform="translate(4599.756 1124.618)" fill="#efcd97"/>
    <path id="Trazado_33906" data-name="Trazado 33906" d="M318.654,666.612l.11,5.451,4.736-2.071.353-5.451Z" transform="translate(4599.167 1124.651)" fill="#cea66e"/>
    <path id="Trazado_33907" data-name="Trazado 33907" d="M324,669.678l-.642,0,.059-4.271.642,0Z" transform="translate(4598.986 1124.618)" fill="#cea66e"/>
    <path id="Trazado_33908" data-name="Trazado 33908" d="M351.1,692.321l-.055-17.151s-6.95-2.137-4.714-10.575c0,0,2.3-4.794,4.67-4.745l.1,5.917s1.948,2.583,5.355-.22l-.477-5.868,2.78,1.875s7.059,6.914-1.822,13.265l-.45,1.181.115,16.321Z" transform="translate(4598.121 1124.838)" fill="#888a8b"/>
    <path id="Trazado_33909" data-name="Trazado 33909" d="M359.156,662.225s2.74,9.569-4.522,12.491V692.34h2.127V675.209S365.764,668.97,359.156,662.225Z" transform="translate(4597.785 1124.74)" fill="#95999b" style="mix-blend-mode: multiply;isolation: isolate"/>
    <path id="Trazado_33910" data-name="Trazado 33910" d="M291.684,640.417s-2.312,22.2,16.987,25.82c0,0,10.8,3.691,19.755-6.866,0,0,4.686-3.257,5.171-19.4Z" transform="translate(4600.207 1125.595)" fill="#efcd97"/>
    <path id="Trazado_33911" data-name="Trazado 33911" d="M290.444,640.187l44.088-.629.235-.775s-15.092-6.006-23.307-4.928c0,0-11.458.124-21.592,5.662Z" transform="translate(4600.273 1125.835)" fill="#efcd97"/>
    <path id="Trazado_33912" data-name="Trazado 33912" d="M291.54,637.389s-.534-25.2,19.8-25.442l.73-1.344,1.817.18.313,1.153s12.361-.076,17.467,13.126c0,0,2.212,9.8,1.769,12.328l1.277,1.122-11.4.436-33.193.352v-.8Z" transform="translate(4600.263 1126.723)" fill="#98d131"/>
    <path id="Trazado_33913" data-name="Trazado 33913" d="M281.736,692.712V678.647s2.37-9.922,14.327-8.309l6.947-.074,5.523,2.588,4.342-1.133,3.7,1.518,6.034-3.339,3.5.182s11.668-1.814,15.5,4.705c0,0,1.767,1.548,1.387,8.031v9.895Z" transform="translate(4600.585 1124.447)" fill="#98d131"/>
    <path id="Trazado_33914" data-name="Trazado 33914" d="M326.175,640.423s2.634,19.62-13.2,26.3l16.748-8.008,3.2-6.914a2.1,2.1,0,0,0,.316-.917L334.3,640.13Z" transform="translate(4599.385 1125.589)" fill="#cea66e"/>
    <path id="Trazado_33915" data-name="Trazado 33915" d="M313.306,667.3l3.089.138s10.351-1.791,13.611-8.6Z" transform="translate(4599.373 1124.87)" fill="#cea66e"/>
    <path id="Trazado_33916" data-name="Trazado 33916" d="M319,612.743s8.1,7.026,7.287,21.986l8.266,2.742-.019-5.637s-2.329-13.052-9.763-16.768Z" transform="translate(4599.154 1126.641)" fill="#6f9321"/>
    <path id="Trazado_33917" data-name="Trazado 33917" d="M303.269,616.66c-4.261,2.269-6.886,6.973-8.069,11.5a24.986,24.986,0,0,0-.738,4.577.964.964,0,1,0,1.927,0A19.7,19.7,0,0,1,301.6,620.3a10.531,10.531,0,0,1,2.642-1.975.964.964,0,0,0-.973-1.665Z" transform="translate(4600.097 1126.495)" fill="#fff"/>
    <path id="Trazado_33918" data-name="Trazado 33918" d="M328.637,669.982s10.687-1.008,10.414,22.72h5.559l-.04-14.176s-.968-8.29-9.642-8.46C334.928,670.066,328.795,669.079,328.637,669.982Z" transform="translate(4598.784 1124.457)" fill="#6f9321"/>
    <path id="Trazado_33919" data-name="Trazado 33919" d="M347.586,669.8a4.855,4.855,0,0,0,3.5,3.807.482.482,0,1,0,.256-.929,3.2,3.2,0,0,1-1-.433,4.149,4.149,0,0,1-1.5-1.659,2.621,2.621,0,0,1-.189-.467,3.777,3.777,0,0,1-.131-.575.484.484,0,0,0-.592-.337.494.494,0,0,0-.337.592Z" transform="translate(4598.056 1124.473)" fill="#fff"/>
    <path id="Trazado_33920" data-name="Trazado 33920" d="M312.047,611.991l2.9-.143-.662-1.193Z" transform="translate(4599.421 1126.721)" fill="#6f9321"/>
    <path id="Trazado_33921" data-name="Trazado 33921" d="M317.433,624.284a1.807,1.807,0,0,0,0-.261v-.261c0-.131.007-.131,0-.261a1.1,1.1,0,0,0-.782-1.043h-3.258l2.476-3.388a1.394,1.394,0,0,0-2.216-1.693l-4.169,5.6a2,2,0,0,0-.131.651v.521a1.088,1.088,0,0,0,1.173,1.173h2.736l-2.475,3.388a1.32,1.32,0,0,0,.261,1.955,1.859,1.859,0,0,0,.782.261,1.593,1.593,0,0,0,1.172-.521l4.17-5.6A1.026,1.026,0,0,0,317.433,624.284Z" transform="translate(4599.524 1126.485)" fill="#32661f"/>
    <path id="Trazado_33922" data-name="Trazado 33922" d="M312.974,667.282c-.093,0-.145,0-.152,0-6.689-.25-11.949-2.507-15.631-6.708-6.912-7.884-5.85-20.075-5.839-20.2l.027-.288,42.52-.446.007.318c.187,9.58-2.172,16.846-7.013,21.6A20.924,20.924,0,0,1,312.974,667.282Zm-21-26.559c-.112,1.872-.439,12.423,5.705,19.429,3.561,4.061,8.665,6.244,15.17,6.487a20.234,20.234,0,0,0,13.6-5.547c4.65-4.57,6.944-11.569,6.819-20.8Z" transform="translate(4600.218 1125.608)" fill="#cea66e"/>
    <rect id="Rectángulo_6760" data-name="Rectángulo 6760" width="0.642" height="4.481" transform="translate(4902.76 1790.186)" fill="#cea66e"/>
    <path id="Trazado_33923" data-name="Trazado 33923" d="M356.166,692.636H351.51a.744.744,0,0,1-.742-.743v-16.5c-.191-.1-.534-.254-.782-.37-.466-.217-.6-.281-.651-.312a7.892,7.892,0,0,1-2.808-2.9,9.611,9.611,0,0,1-.08-8.017,6.988,6.988,0,0,1,4.437-4.244l.154-.043.268.2.006.171.1,5.765c.377.375,2.091,1.824,4.538-.023l-.2-5.9.3-.214.175.066c.371.156,3.65,1.609,4.758,4.569.028.074,2.779,7.526-4.19,11.124l.117,16.639a.742.742,0,0,1-.742.748Zm-5.489-32.357a6.508,6.508,0,0,0-3.64,3.757,8.946,8.946,0,0,0,.055,7.459,7.253,7.253,0,0,0,2.581,2.665c.043.024.343.164.584.276,1.153.537,1.153.537,1.153.763v16.694a.1.1,0,0,0,.1.1h4.656a.1.1,0,0,0,.071-.03.1.1,0,0,0,.029-.072l-.12-17.039.18-.089c6.679-3.3,4.165-10.122,4.054-10.41a8.143,8.143,0,0,0-3.965-4l.184,5.558-.126.1c-3.286,2.607-5.6-.015-5.627-.042l-.076-.088Z" transform="translate(4598.131 1124.845)" fill="#494949"/>
    <path id="Trazado_33924" data-name="Trazado 33924" d="M290.263,640.5a.727.727,0,0,1-.377-1.349c4.535-2.721,21.165-10.809,44.75-.639a.728.728,0,0,1-.278,1.4l-44.086.592Zm21.6-6.334a42.664,42.664,0,0,0-21.65,5.536.076.076,0,0,0-.038.093c.013.042.054.073.086.062l44.085-.592a.076.076,0,0,0,.081-.068.077.077,0,0,0-.049-.1A56.592,56.592,0,0,0,311.867,634.166Z" transform="translate(4600.286 1125.843)" fill="#6f9321"/>
    <path id="Trazado_33925" data-name="Trazado 33925" d="M291.28,637.784c-.009-.124-.789-12.479,6.255-20.059,3.636-3.913,8.7-5.907,15.061-5.927a20.821,20.821,0,0,1,14.321,5.285c4.731,4.451,7.085,11.341,7,20.478l-.642-.006c.086-8.947-2.2-15.675-6.789-20a20.14,20.14,0,0,0-13.864-5.118c-6.194.021-11.1,1.945-14.611,5.72-6.855,7.372-6.1,19.458-6.088,19.579Z" transform="translate(4600.22 1126.678)" fill="#6f9321"/>
    <path id="Trazado_33926" data-name="Trazado 33926" d="M341.881,693.023H282.816a1.417,1.417,0,0,1-1.414-1.416V679.434a1.356,1.356,0,0,1,.018-.225c.159-.958,1.851-9.344,12.557-9.2h8.894a1.417,1.417,0,0,1,.663.164l4.337,2.3a.773.773,0,0,0,.6.051l3.462-1.136a1.414,1.414,0,0,1,.984.036l3.055,1.267a.772.772,0,0,0,.68-.044l5.03-2.888a1.421,1.421,0,0,1,.7-.187h10.705a1.362,1.362,0,0,1,.245.021c.945.168,9.264,1.857,9.95,9.047,0,.052.007.1.007.155v12.818A1.417,1.417,0,0,1,341.881,693.023Zm-48.163-22.375c-9.941,0-11.516,7.772-11.664,8.666a.707.707,0,0,0-.01.12v12.174a.774.774,0,0,0,.772.773h59.064a.774.774,0,0,0,.772-.773V678.79c0-.032,0-.063,0-.1-.641-6.717-8.528-8.314-9.424-8.474a.761.761,0,0,0-.132-.011H322.388a.773.773,0,0,0-.385.1l-5.03,2.888a1.424,1.424,0,0,1-1.246.08l-3.056-1.266a.77.77,0,0,0-.537-.021l-3.461,1.137a1.42,1.42,0,0,1-1.1-.094l-4.337-2.3a.774.774,0,0,0-.362-.089h-9.153Z" transform="translate(4600.598 1124.458)" fill="#6f9321"/>
    <path id="Trazado_33927" data-name="Trazado 33927" d="M313.185,676.018h0a1.433,1.433,0,1,0,1.434,1.433A1.446,1.446,0,0,0,313.185,676.018Z" transform="translate(4599.432 1124.21)" fill="#32661f"/>
    <path id="Trazado_33928" data-name="Trazado 33928" d="M313.185,681.844h0a1.434,1.434,0,1,0,1.434,1.434A1.368,1.368,0,0,0,313.185,681.844Z" transform="translate(4599.432 1123.987)" fill="#32661f"/>
    <path id="Trazado_33929" data-name="Trazado 33929" d="M313.185,687.671h0a1.434,1.434,0,1,0,1.434,1.434A1.368,1.368,0,0,0,313.185,687.671Z" transform="translate(4599.432 1123.763)" fill="#32661f"/>
    <path id="Trazado_33930" data-name="Trazado 33930" d="M311.867,612.252l-.014-.335V611.9a1.765,1.765,0,0,1,1.747-1.761h.008a1.766,1.766,0,0,1,1.754,1.747l0,.347Zm1.741-1.466h0a1.1,1.1,0,0,0-.782.332,1.127,1.127,0,0,0-.287.489l2.142-.009a1.114,1.114,0,0,0-.29-.487A1.1,1.1,0,0,0,313.609,610.785Z" transform="translate(4599.428 1126.741)" fill="#6f9321"/>
  </g>
</svg>
