<svg xmlns="http://www.w3.org/2000/svg" xmlns:xlink="http://www.w3.org/1999/xlink" width="51.584" height="84.456" viewBox="0 0 51.584 84.456">
  <defs>
    <linearGradient id="linear-gradient" y1="0.5" x2="1" y2="0.5" gradientUnits="objectBoundingBox">
      <stop offset="0" stop-color="#487f7f"/>
      <stop offset="1" stop-color="#3656aa"/>
    </linearGradient>
  </defs>
  <g id="Grupo_23130" data-name="Grupo 23130" transform="translate(2 2.859)">
    <g id="Trazado_30096" data-name="Trazado 30096" transform="translate(-215.724 -789.054)" fill="url(#linear-gradient)">
      <path d="M 243.3535308837891 851.0455322265625 C 243.3529205322266 851.0455322265625 243.3530731201172 851.0455322265625 243.3524475097656 851.0455322265625 C 242.828369140625 851.0455322265625 242.297119140625 851.027587890625 241.7730102539062 850.9921264648438 C 241.0575256347656 850.9751586914062 240.3938903808594 850.9354858398438 239.7449798583984 850.870849609375 C 232.6287078857422 850.1598510742188 226.1325225830078 846.6404418945312 221.4527587890625 840.9608764648438 C 219.2251434326172 838.2573852539062 217.5085144042969 835.1974487304688 216.3505401611328 831.8660278320312 C 215.1700744628906 828.4699096679688 214.6273651123047 824.9506225585938 214.7375030517578 821.4059448242188 C 215.0218353271484 812.2341918945312 218.4806213378906 804.0995483398438 224.7399139404297 797.8814697265625 C 229.9326934814453 792.7229614257812 236.8681335449219 789.1453247070312 243.7679138183594 788.0660400390625 L 246.5910186767578 787.6244506835938 L 244.6593627929688 789.7300415039062 C 236.5778350830078 798.539306640625 238.3740539550781 807.9201049804688 241.3039855957031 814.2383422851562 C 241.3796997070312 814.4017333984375 241.45849609375 814.5661010742188 241.5398101806641 814.7303466796875 C 242.9958648681641 812.3126220703125 244.995361328125 810.2250366210938 247.4001770019531 808.6266479492188 C 250.5337371826172 806.5438232421875 254.20947265625 805.3341674804688 258.3253173828125 805.0311279296875 L 260.2737426757812 804.8876953125 L 259.2506713867188 806.5521240234375 C 258.3308715820312 808.0485229492188 257.7582702636719 809.6680908203125 257.5487670898438 811.3658447265625 C 257.052978515625 815.3732299804688 258.8020324707031 818.5647583007812 260.3565673828125 820.5364990234375 C 261.7760620117188 822.336669921875 262.8838500976562 824.531494140625 263.5601196289062 826.883544921875 C 264.2578735351562 829.3102416992188 264.4727783203125 831.8386840820312 264.1815795898438 834.1954345703125 C 263.6025390625 838.8760986328125 261.1361083984375 843.1694946289062 257.2366027832031 846.284912109375 C 253.3941497802734 849.354736328125 248.4632873535156 851.0455322265625 243.3535308837891 851.0455322265625 Z" stroke="none"/>
      <path d="M 243.3524932861328 850.0455322265625 C 253.399658203125 850.0460205078125 262.0528869628906 843.2575073242188 263.1891174316406 834.0728149414062 C 263.7588500976562 829.4617309570312 262.2518615722656 824.5551147460938 259.5712890625 821.1556396484375 C 257.3663635253906 818.3589477539062 256.1016540527344 814.9182739257812 256.5563049316406 811.243408203125 C 256.7895812988281 809.3529052734375 257.4354553222656 807.5955810546875 258.3987426757812 806.0284423828125 C 250.2508697509766 806.6282958984375 244.3090057373047 810.9791259765625 241.5513305664062 816.824951171875 C 241.3771057128906 816.5374145507812 241.203857421875 816.2511596679688 241.0436401367188 815.956787109375 C 240.9855651855469 815.8505249023438 240.9335021972656 815.740478515625 240.87744140625 815.63330078125 C 240.7091979980469 815.3118286132812 240.5489959716797 814.9874877929688 240.3967895507812 814.6590576171875 C 238.7195587158203 811.0421752929688 234.1044311523438 799.7561645507812 243.9224700927734 789.0540161132812 C 231.619140625 790.9785766601562 216.3468170166016 801.7669067382812 215.7370147705078 821.43701171875 C 215.3054504394531 835.3264770507812 225.4329071044922 848.4359130859375 239.8440551757812 849.8757934570312 C 240.5079650878906 849.94189453125 241.1658172607422 849.9779052734375 241.8186645507812 849.992919921875 C 242.3326263427734 850.0281982421875 242.8448486328125 850.0455322265625 243.3524932861328 850.0455322265625 M 243.3535308837891 852.0455322265625 L 243.3535308837891 850.0455322265625 L 243.3531494140625 852.0455322265625 C 242.8133392333984 852.0455322265625 242.2669372558594 852.0272827148438 241.7275238037109 851.9913330078125 C 240.9949035644531 851.9734497070312 240.3135223388672 851.9324340820312 239.6459045410156 851.865966796875 C 232.2647552490234 851.1284790039062 225.5298156738281 847.4815063476562 220.6809844970703 841.5968017578125 C 218.3777770996094 838.801513671875 216.6029968261719 835.6381225585938 215.4059753417969 832.1943359375 C 214.1852264404297 828.682373046875 213.6240386962891 825.0421752929688 213.7379760742188 821.3748779296875 C 214.0303955078125 811.94287109375 217.5910949707031 803.5736083984375 224.0351409912109 797.1720581054688 C 229.3740692138672 791.8682861328125 236.5100708007812 788.189208984375 243.6133728027344 787.0780639648438 L 249.2595672607422 786.19482421875 L 245.3962554931641 790.4060668945312 C 238.1593475341797 798.2946166992188 239.2336730957031 806.679443359375 241.7105407714844 812.6755981445312 C 243.1072998046875 810.7803344726562 244.8434600830078 809.125244140625 246.8466186523438 807.7938232421875 C 248.4413146972656 806.73388671875 250.2030029296875 805.8778686523438 252.0827178955078 805.2495727539062 C 254.0215148925781 804.6015014648438 256.0971069335938 804.1924438476562 258.2518920898438 804.0338134765625 L 262.1487426757812 803.7469482421875 L 260.1026000976562 807.0757446289062 C 259.2583923339844 808.44921875 258.7330627441406 809.9337768554688 258.541259765625 811.4883422851562 C 258.0877685546875 815.1536865234375 259.7052001953125 818.0951538085938 261.1418762207031 819.9174194335938 C 262.6408386230469 821.818359375 263.8094177246094 824.1317138671875 264.5211791992188 826.6072387695312 C 265.255859375 829.162353515625 265.4815979003906 831.8286743164062 265.1740417480469 834.3180541992188 C 264.5627746582031 839.2592163085938 261.9656372070312 843.786376953125 257.8610534667969 847.0657348632812 C 253.8417663574219 850.2770385742188 248.6895599365234 852.0455322265625 243.3535308837891 852.0455322265625 Z" stroke="none" fill="#3e48aa"/>
    </g>
    <g id="Grupo_23124" data-name="Grupo 23124" transform="translate(25.916 16.975)" opacity="0.4">
      <g id="Grupo_23123" data-name="Grupo 23123">
        <g id="Grupo_23122" data-name="Grupo 23122">
          <path id="Trazado_30097" data-name="Trazado 30097" d="M241.708,816.8q.282.464.586.915c.068.1.131.2.2.3.19.274.4.54.6.806,2.054-5.99,7.309-10.885,15.075-12.488.064-.111.127-.224.194-.335-8.067.594-13.966,4.868-16.759,10.624C241.639,816.688,241.675,816.749,241.708,816.8Z" transform="translate(-241.605 -806.006)" fill="#fff"/>
        </g>
      </g>
    </g>
    <g id="Grupo_23127" data-name="Grupo 23127" transform="translate(0.732 33.877)">
      <g id="Grupo_23126" data-name="Grupo 23126">
        <g id="Grupo_23125" data-name="Grupo 23125">
          <path id="Trazado_30098" data-name="Trazado 30098" d="M260.779,822.886a16.93,16.93,0,0,1,.114,4.77c-1.194,9.649-10.683,16.654-21.37,15.921-.653-.015-1.311-.051-1.975-.118a26.666,26.666,0,0,1-21.093-14.895c2.538,10.953,11.5,20.079,23.388,21.266.664.066,1.322.1,1.975.117,10.686.733,20.177-6.271,21.37-15.92A18.044,18.044,0,0,0,260.779,822.886Z" transform="translate(-216.455 -822.886)" fill="#3e48aa"/>
        </g>
      </g>
    </g>
    <path id="Trazado_30099" data-name="Trazado 30099" d="M230.263,840.772a21.033,21.033,0,0,1-9.711-18.507" transform="translate(-215.717 -789.01)" fill="none" stroke="#fff" stroke-linecap="round" stroke-linejoin="round" stroke-width="2.835"/>
    <g id="Grupo_23128" data-name="Grupo 23128" transform="translate(0.176 61.364)">
      <path id="Trazado_30100" data-name="Trazado 30100" d="M239.437,869.57c-13.2,0-23.537-5.533-23.537-12.6a8.448,8.448,0,0,1,2.417-5.691,1.961,1.961,0,1,1,2.895,2.646,4.568,4.568,0,0,0-1.39,3.044c0,4.1,8.056,8.677,19.615,8.677s19.615-4.573,19.615-8.677a4.756,4.756,0,0,0-1.62-3.291,1.961,1.961,0,0,1,2.783-2.763,8.614,8.614,0,0,1,2.76,6.054C262.975,864.036,252.636,869.57,239.437,869.57Z" transform="translate(-215.9 -850.336)" fill="#8fb82b" stroke="#51873d" stroke-width="2"/>
    </g>
    <g id="Grupo_23129" data-name="Grupo 23129" transform="translate(9.685 64.306)">
      <g id="Trazado_30101" data-name="Trazado 30101" transform="translate(-225.396 -853.275)" fill="#888a8b">
        <path d="M 239.4246673583984 862.4909057617188 C 235.60986328125 862.4909057617188 231.9614715576172 861.8009643554688 229.1515655517578 860.5481567382812 C 226.0848846435547 859.180908203125 224.39599609375 857.2944946289062 224.39599609375 855.236572265625 C 224.39599609375 853.6035766601562 225.72412109375 852.2750244140625 227.3566131591797 852.2750244140625 C 228.6717681884766 852.2750244140625 229.8104705810547 853.1345825195312 230.1872406005859 854.364013671875 C 230.488037109375 854.6010131835938 231.2413177490234 855.0805053710938 232.5899963378906 855.5462036132812 C 233.9410095214844 856.0126342773438 236.2234344482422 856.5687255859375 239.4246673583984 856.5687255859375 C 242.6257476806641 856.5687255859375 244.9080047607422 856.0126342773438 246.2588958740234 855.5462036132812 C 247.6064605712891 855.0808715820312 248.3602752685547 854.6012573242188 248.6618347167969 854.3638916015625 C 249.0377502441406 853.134521484375 250.1759796142578 852.2750244140625 251.4916839599609 852.2750244140625 C 253.1247253417969 852.2750244140625 254.4532928466797 853.6035766601562 254.4532928466797 855.236572265625 C 254.4532928466797 857.2944946289062 252.764404296875 859.180908203125 249.6977386474609 860.5481567382812 C 246.8878479003906 861.8009643554688 243.2394714355469 862.4909057617188 239.4246673583984 862.4909057617188 Z" stroke="none"/>
        <path d="M 239.4246673583984 861.4909057617188 C 247.0287780761719 861.4909057617188 253.4532928466797 858.6261596679688 253.4532928466797 855.236572265625 C 253.4532928466797 854.153076171875 252.5751342773438 853.2750244140625 251.4916839599609 853.2750244140625 C 250.5274047851562 853.2750244140625 249.7253265380859 853.9708862304688 249.5621337890625 854.8890991210938 C 248.9603271484375 855.589111328125 245.6048736572266 857.5687255859375 239.4246673583984 857.5687255859375 C 233.2444152832031 857.5687255859375 229.8879852294922 855.589111328125 229.2871704101562 854.8890991210938 C 229.1229705810547 853.9708862304688 228.3218841552734 853.2750244140625 227.3566131591797 853.2750244140625 C 226.274169921875 853.2750244140625 225.39599609375 854.153076171875 225.39599609375 855.236572265625 C 225.39599609375 858.6261596679688 231.8205413818359 861.4909057617188 239.4246673583984 861.4909057617188 M 249.5310821533203 855.234619140625 L 249.5310821533203 855.236572265625 L 249.5310821533203 855.234619140625 M 229.3182373046875 855.234619140625 L 229.3182373046875 855.236572265625 L 229.3182373046875 855.234619140625 M 239.4246673583984 863.4909057617188 C 235.4726104736328 863.4909057617188 231.6796112060547 862.7702026367188 228.7443695068359 861.4614868164062 C 225.29541015625 859.9237670898438 223.39599609375 857.7130737304688 223.39599609375 855.236572265625 C 223.39599609375 853.0521850585938 225.1727294921875 851.2750244140625 227.3566131591797 851.2750244140625 C 228.9936370849609 851.2750244140625 230.4263000488281 852.2708129882812 231.0235900878906 853.7345581054688 C 231.9189605712891 854.31005859375 234.7200012207031 855.5687255859375 239.4246673583984 855.5687255859375 C 242.3586883544922 855.5687255859375 244.4635009765625 855.0825805664062 245.7125701904297 854.6748046875 C 246.7770233154297 854.3272705078125 247.4703979492188 853.9598388671875 247.8266448974609 853.7311401367188 C 248.4239807128906 852.2692260742188 249.8552551269531 851.2750244140625 251.4916839599609 851.2750244140625 C 253.6761169433594 851.2750244140625 255.4532928466797 853.0521850585938 255.4532928466797 855.236572265625 C 255.4532928466797 857.7130737304688 253.5538787841797 859.9237670898438 250.1049346923828 861.4614868164062 C 247.1697082519531 862.7702026367188 243.3767242431641 863.4909057617188 239.4246673583984 863.4909057617188 Z" stroke="none" fill="#3b3b3b"/>
      </g>
    </g>
  </g>
</svg>
