<svg xmlns="http://www.w3.org/2000/svg" width="56.912" height="84.546" viewBox="0 0 56.912 84.546">
  <g id="Grupo_26977" data-name="Grupo 26977" transform="translate(-34.579 -781.048)">
    <g id="Trazado_30102" data-name="Trazado 30102" transform="translate(0 0)" fill="#5389b8">
      <path d="M 63.03485488891602 864.09375 C 59.39651107788086 864.09375 55.86618804931641 863.380859375 52.54196548461914 861.9747924804688 C 49.3319091796875 860.6170654296875 46.44928741455078 858.6736450195312 43.97420120239258 856.1985473632812 C 41.49909973144531 853.7234497070312 39.55568695068359 850.8408203125 38.19794464111328 847.6307983398438 C 36.79191207885742 844.3065795898438 36.07899856567383 840.7763061523438 36.07899856567383 837.137939453125 C 36.07899856567383 831.0391235351562 40.42965316772461 820.4625244140625 49.0101203918457 805.7019653320312 C 55.33078765869141 794.8287963867188 61.73767852783203 785.556396484375 61.80165481567383 785.4639892578125 L 63.03485488891602 783.68310546875 L 64.26805114746094 785.4639892578125 C 64.33203125 785.556396484375 70.73892211914062 794.8287963867188 77.05960083007812 805.7019653320312 C 85.64006805419922 820.4625244140625 89.99072265625 831.0391235351562 89.99072265625 837.137939453125 C 89.99072265625 840.7763061523438 89.27780914306641 844.3065795898438 87.87178039550781 847.6307983398438 C 86.51403045654297 850.8408203125 84.57062530517578 853.7234497070312 82.09553527832031 856.1985473632812 C 79.62042999267578 858.6736450195312 76.73780822753906 860.6170654296875 73.52775573730469 861.9747924804688 C 70.20352935791016 863.380859375 66.67321014404297 864.09375 63.03485488891602 864.09375 Z" stroke="none"/>
      <path d="M 63.03485488891602 862.59375 C 77.09372711181641 862.59375 88.49071502685547 851.1967163085938 88.49071502685547 837.137939453125 C 88.49071502685547 823.0789794921875 63.03485488891602 786.3179321289062 63.03485488891602 786.3179321289062 C 63.03485488891602 786.3179321289062 37.5789909362793 823.0789794921875 37.5789909362793 837.137939453125 C 37.5789909362793 851.1967163085938 48.97600555419922 862.59375 63.03485488891602 862.59375 M 63.03485488891602 865.59375 C 59.19466781616211 865.59375 55.46775436401367 864.8409423828125 51.9576416015625 863.3563232421875 C 48.56877899169922 861.9229125976562 45.52590560913086 859.87158203125 42.91352844238281 857.2592163085938 C 40.30116653442383 854.6468505859375 38.24980545043945 851.6039428710938 36.81642913818359 848.2151489257812 C 35.33177947998047 844.7050170898438 34.5789909362793 840.9780883789062 34.5789909362793 837.137939453125 C 34.5789909362793 833.4614868164062 35.96315383911133 828.5287475585938 38.81056594848633 822.0579223632812 C 40.9669303894043 817.157470703125 43.96224212646484 811.4009399414062 47.71330642700195 804.9481201171875 C 54.06346893310547 794.0242309570312 60.50414276123047 784.702880859375 60.56846618652344 784.6100463867188 L 63.03485488891602 781.0482788085938 L 65.50124359130859 784.6100463867188 C 65.56556701660156 784.702880859375 72.00624084472656 794.0242309570312 78.35640716552734 804.9481201171875 C 82.10746765136719 811.4009399414062 85.102783203125 817.157470703125 87.25914001464844 822.0579223632812 C 90.10655212402344 828.5287475585938 91.49071502685547 833.4614868164062 91.49071502685547 837.137939453125 C 91.49071502685547 840.9780883789062 90.73793029785156 844.7050170898438 89.25328063964844 848.2151489257812 C 87.81990814208984 851.6039428710938 85.7685546875 854.6468505859375 83.15618133544922 857.2592163085938 C 80.54381561279297 859.87158203125 77.50094604492188 861.9229125976562 74.11208343505859 863.3563232421875 C 70.60196685791016 864.8409423828125 66.87504577636719 865.59375 63.03485488891602 865.59375 Z" stroke="none" fill="#3c6aa8"/>
    </g>
    <path id="Trazado_30103" data-name="Trazado 30103" d="M80.633,816.756c1.533,4.1,2.474,7.772,2.474,10.6A27.968,27.968,0,0,1,41.07,851.536a25.454,25.454,0,0,0,47.641-12.479C88.711,833.776,85.119,825.292,80.633,816.756Z" transform="translate(-0.22 -1.919)" fill="#3c6aa8"/>
    <path id="Trazado_30104" data-name="Trazado 30104" d="M85.847,838.693a21.17,21.17,0,0,1-21.17,21.17" transform="translate(-1.709 -3.303)" fill="none" stroke="#fff" stroke-linecap="round" stroke-linejoin="round" stroke-width="6"/>
    <path id="Trazado_30105" data-name="Trazado 30105" d="M85.937,825.06" transform="translate(-3.049 -2.443)" fill="#5389b8" stroke="#f0f0f0" stroke-width="3"/>
  </g>
</svg>
